<svg width="73" height="73" viewBox="0 0 73 73" fill="none" xmlns="http://www.w3.org/2000/svg">
<path fill-rule="evenodd" clip-rule="evenodd" d="M36.5 72C56.1061 72 72 56.1061 72 36.5C72 16.8939 56.1061 1 36.5 1C16.8939 1 1 16.8939 1 36.5C1 56.1061 16.8939 72 36.5 72ZM36.5 73C56.6584 73 73 56.6584 73 36.5C73 16.3416 56.6584 0 36.5 0C16.3416 0 0 16.3416 0 36.5C0 56.6584 16.3416 73 36.5 73Z" fill="white"/>
<path fill-rule="evenodd" clip-rule="evenodd" d="M46.6709 23.6429C46.8865 23.8001 47.0304 24.037 47.0705 24.3008L50.1332 44.4584C50.2161 45.0044 49.8407 45.5143 49.2947 45.5973C48.7487 45.6803 48.2388 45.3049 48.1558 44.7589L45.4583 27.0043L28.4032 50.4042C28.0779 50.8505 27.4524 50.9486 27.006 50.6233C26.5597 50.298 26.4616 49.6725 26.7869 49.2261L43.842 25.8263L26.1141 28.6936C25.5689 28.7818 25.0555 28.4113 24.9673 27.8661C24.8791 27.3209 25.2496 26.8074 25.7948 26.7193L45.9222 23.4639C46.1856 23.4212 46.4552 23.4857 46.6709 23.6429Z" fill="white"/>
</svg>
