<svg width="33" height="27" viewBox="0 0 33 27" fill="none" xmlns="http://www.w3.org/2000/svg">
<path d="M1.04628e-08 7.686L15.981 15.9975C16.1413 16.0809 16.3193 16.1244 16.5 16.1244C16.6807 16.1244 16.8587 16.0809 17.019 15.9975L33 7.6875V22.125C33.0001 23.3702 32.5237 24.5682 31.6685 25.4733C30.8133 26.3785 29.6442 26.922 28.401 26.9925L28.125 27H4.875C3.62979 27.0001 2.43176 26.5237 1.52665 25.6685C0.621551 24.8133 0.077998 23.6442 0.00750018 22.401L1.04628e-08 22.125V7.686ZM4.875 1.04628e-08H28.125C29.3702 -8.15201e-05 30.5682 0.476331 31.4733 1.33151C32.3785 2.18668 32.922 3.35579 32.9925 4.599L33 4.875V5.151L16.5 13.731L1.04628e-08 5.151V4.875C-8.15201e-05 3.62979 0.476331 2.43176 1.33151 1.52665C2.18668 0.621551 3.35579 0.077998 4.599 0.00750018L4.875 1.04628e-08Z" fill="#57899F"/>
</svg>
