<svg width="29" height="29" viewBox="0 0 29 29" fill="none" xmlns="http://www.w3.org/2000/svg">
<path d="M5.92319 0.21363C6.26896 0.412454 6.66116 0.736922 7.20108 1.26918L9.55778 3.70566C9.60264 3.75116 9.64387 3.79273 9.68077 3.82962C10.5768 4.72575 10.7753 5.3069 10.6014 6.14039L10.5034 6.52337L10.304 7.12421L10.2319 7.33146C9.10762 10.5566 9.50113 12.7965 12.8564 16.1508C16.0961 19.3895 18.2961 19.8671 21.3456 18.8822L22.3968 18.5254L22.6508 18.4524C23.5306 18.2176 24.1102 18.3286 24.9582 19.1105L27.4958 21.5608L27.7363 21.8015L28.1427 22.2307C28.4424 22.5623 28.6482 22.8337 28.7896 23.0812C29.1615 23.7317 29.0821 24.4265 28.2126 25.5846L27.8724 26.0132C27.6229 26.3127 27.3276 26.6406 26.9818 27.0024L26.2446 27.7463C25.2779 28.7366 24.33 29.1867 22.4715 28.9282C19.2836 28.4849 14.8656 25.7366 9.06712 19.9399C3.50213 14.3766 0.736355 10.0716 0.132114 6.89811C-0.236117 4.96416 0.191201 3.83962 1.09332 2.91822L1.46663 2.5432L1.51625 2.4812L2.0669 1.9449C2.15458 1.86163 2.24026 1.78137 2.32402 1.70405L2.80423 1.27507C4.33254 -0.0402666 5.15833 -0.226173 5.92319 0.21363Z" fill="#57899F"/>
</svg>
