<svg width="38" height="31" viewBox="0 0 38 31" fill="none" xmlns="http://www.w3.org/2000/svg">
<path fill-rule="evenodd" clip-rule="evenodd" d="M22.389 6.88892C21.4378 6.88892 20.6667 7.65999 20.6667 8.61114V22.3889C20.6667 23.3401 21.4378 24.1111 22.389 24.1111H29.2779C30.229 24.1111 31.0001 23.3401 31.0001 22.3889V8.61114C31.0001 7.65999 30.229 6.88892 29.2779 6.88892H22.389ZM27.5556 10.3334H24.1112V20.6667H27.5556V10.3334Z" fill="#57899F"/>
<path d="M8.61114 6.88892C7.65999 6.88892 6.88892 7.65999 6.88892 8.61114C6.88892 9.56229 7.65999 10.3334 8.61114 10.3334H15.5C16.4512 10.3334 17.2222 9.56229 17.2222 8.61114C17.2222 7.65999 16.4512 6.88892 15.5 6.88892H8.61114Z" fill="#57899F"/>
<path d="M8.61114 13.7778C7.65999 13.7778 6.88892 14.5489 6.88892 15.5001C6.88892 16.4512 7.65999 17.2223 8.61114 17.2223H15.5C16.4512 17.2223 17.2222 16.4512 17.2222 15.5001C17.2222 14.5489 16.4512 13.7778 15.5 13.7778H8.61114Z" fill="#57899F"/>
<path d="M6.88892 22.389C6.88892 21.4378 7.65999 20.6667 8.61114 20.6667H15.5C16.4512 20.6667 17.2222 21.4378 17.2222 22.389C17.2222 23.3402 16.4512 24.1112 15.5 24.1112H8.61114C7.65999 24.1112 6.88892 23.3402 6.88892 22.389Z" fill="#57899F"/>
<path fill-rule="evenodd" clip-rule="evenodd" d="M5.16667 0C2.3132 0 0 2.3132 0 5.16667V25.8333C0 28.6869 2.3132 31 5.16667 31H32.7222C35.5758 31 37.8889 28.6869 37.8889 25.8333V5.16667C37.8889 2.3132 35.5758 0 32.7222 0H5.16667ZM32.7222 3.44444H5.16667C4.21552 3.44444 3.44444 4.21552 3.44444 5.16667V25.8333C3.44444 26.7845 4.21552 27.5556 5.16667 27.5556H32.7222C33.6734 27.5556 34.4444 26.7845 34.4444 25.8333V5.16667C34.4444 4.21552 33.6734 3.44444 32.7222 3.44444Z" fill="#57899F"/>
</svg>
