<svg width="42" height="32" viewBox="0 0 42 32" fill="none" xmlns="http://www.w3.org/2000/svg">
<path d="M37.2201 0.524969C36.7711 0.233739 36.2576 0.0575502 35.7247 0.0118912C35.1919 -0.0337678 34.656 0.052501 34.1642 0.263114L18.0485 6.6262C17.667 6.78187 17.2589 6.86191 16.847 6.86187H6.52985C5.66394 6.86187 4.83349 7.20673 4.2212 7.82057C3.60891 8.43441 3.26493 9.26696 3.26493 10.1351V10.3969H0V18.2526H3.26493V18.593C3.28539 19.4474 3.63838 20.2599 4.24847 20.8569C4.85856 21.4538 5.67735 21.7879 6.52985 21.7876L10.4478 30.1146C10.7131 30.6754 11.1307 31.1497 11.6528 31.4832C12.1749 31.8167 12.7802 31.9958 13.3993 32H15.0448C15.9062 31.9931 16.7299 31.6452 17.3366 31.0321C17.9432 30.419 18.2836 29.5904 18.2836 28.7268V22.1019L34.1642 28.465C34.5548 28.6208 34.9714 28.7008 35.3918 28.7006C36.044 28.6901 36.6792 28.49 37.2201 28.1245C37.6498 27.8337 38.0041 27.4446 38.2539 26.9892C38.5037 26.5339 38.6418 26.0254 38.6567 25.506V3.22208C38.6543 2.68925 38.5222 2.16505 38.2719 1.69503C38.0215 1.225 37.6605 0.823354 37.2201 0.524969ZM15.0187 10.1351V18.593H6.52985V10.1351H15.0187ZM15.0187 28.7268H13.3731L10.1604 21.7876H15.0187V28.7268ZM19.25 18.9858C18.9399 18.8269 18.6165 18.6955 18.2836 18.593V9.95177C18.6133 9.88356 18.9366 9.78719 19.25 9.66373L35.3918 3.22208V25.4274L19.25 18.9858ZM38.7351 11.0516V17.5979C39.601 17.5979 40.4314 17.2531 41.0437 16.6392C41.656 16.0254 42 15.1929 42 14.3248C42 13.4566 41.656 12.6241 41.0437 12.0103C40.4314 11.3964 39.601 11.0516 38.7351 11.0516Z" fill="#57899F"/>
</svg>
