<svg width="35" height="35" viewBox="0 0 35 35" fill="none" xmlns="http://www.w3.org/2000/svg">
<path d="M33.3333 15.3167V17.6667C33.3333 25.0519 33.3333 28.7447 31.0389 31.0389C28.7447 33.3333 25.0519 33.3333 17.6667 33.3333C10.2813 33.3333 6.58865 33.3333 4.29433 31.0389C2 28.7447 2 25.0519 2 17.6667C2 10.2813 2 6.58865 4.29433 4.29433C6.58865 2 10.2813 2 17.6667 2H20.0167" stroke="#57899F" stroke-width="3" stroke-linecap="round"/>
<path d="M25.9713 3.26311L24.9547 4.2796L15.6098 13.6246C14.9769 14.2575 14.6604 14.5739 14.3882 14.923C14.0671 15.3345 13.7919 15.7799 13.5673 16.2512C13.3769 16.6507 13.2354 17.0752 12.9523 17.9245L12.046 20.6433L11.4596 22.4025C11.3203 22.8205 11.4291 23.2811 11.7406 23.5927C12.052 23.9042 12.5128 24.0129 12.9307 23.8736L14.6899 23.2872L17.4087 22.3809C18.258 22.0978 18.6825 21.9563 19.082 21.766C19.5533 21.5413 19.9987 21.2661 20.4103 20.9451C20.7593 20.6728 21.0758 20.3563 21.7087 19.7234L31.0536 10.3785L32.0702 9.36199C33.7542 7.67784 33.7542 4.94728 32.0702 3.26311C30.386 1.57896 27.6555 1.57896 25.9713 3.26311Z" stroke="#57899F" stroke-width="3"/>
<path d="M24.9551 4.27954C24.9551 4.27954 25.0821 6.43955 26.9881 8.34545C28.894 10.2513 31.054 10.3784 31.054 10.3784M14.6903 23.2871L12.0464 20.6432" stroke="#57899F" stroke-width="3"/>
</svg>
