<svg width="37" height="37" viewBox="0 0 37 37" fill="none" xmlns="http://www.w3.org/2000/svg">
<path d="M14.1578 15.8947C17.9947 15.8947 21.1052 12.7843 21.1052 8.94737C21.1052 5.11044 17.9947 2 14.1578 2C10.3209 2 7.21045 5.11044 7.21045 8.94737C7.21045 12.7843 10.3209 15.8947 14.1578 15.8947Z" stroke="#57899F" stroke-width="3"/>
<path d="M24.5789 14.1579C27.4566 14.1579 29.7894 11.825 29.7894 8.94734C29.7894 6.06966 27.4566 3.73682 24.5789 3.73682" stroke="#57899F" stroke-width="3" stroke-linecap="round"/>
<path d="M14.1579 35C20.8725 35 26.3158 31.8895 26.3158 28.0526C26.3158 24.2157 20.8725 21.1052 14.1579 21.1052C7.44328 21.1052 2 24.2157 2 28.0526C2 31.8895 7.44328 35 14.1579 35Z" stroke="#57899F" stroke-width="3"/>
<path d="M29.7896 22.842C32.8363 23.5102 35.0001 25.2022 35.0001 27.1841C35.0001 28.9719 33.2394 30.5239 30.658 31.3012" stroke="#57899F" stroke-width="3" stroke-linecap="round"/>
</svg>
