<svg width="38" height="34" viewBox="0 0 38 34" fill="none" xmlns="http://www.w3.org/2000/svg">
<path d="M30.5912 34C30.2943 34 29.9995 33.9121 29.7466 33.7406L20.1919 27.2575L15.0673 30.946C14.6654 31.2351 14.1473 31.3079 13.6806 31.141C13.2145 30.9737 12.8605 30.5875 12.7342 30.1087L10.161 20.3544L0.966919 16.8378C0.388112 16.6163 0.00424669 16.0624 3.49986e-05 15.4425C-0.00417669 14.8226 0.372068 14.2635 0.948067 14.0342L35.9075 0.119492C36.0662 0.0520854 36.234 0.0131659 36.4033 0.00273386C36.4639 -0.000877211 36.5246 -0.000877101 36.585 0.00253336C36.9356 0.0233973 37.2799 0.166235 37.5487 0.429844C37.5766 0.457128 37.603 0.485013 37.6281 0.514102C37.8507 0.768483 37.9731 1.07863 37.9961 1.3946C38.0017 1.47405 38.0013 1.55449 37.9943 1.63494C37.9895 1.69232 37.9813 1.74949 37.9697 1.80627L32.0687 32.7771C31.9738 33.2746 31.6353 33.6911 31.1676 33.885C30.9821 33.9621 30.7861 34 30.5912 34ZM21.0308 24.1905L29.5419 29.9652L34.1334 5.86652L17.55 21.8287L20.9907 24.1634C21.0046 24.1721 21.0178 24.1813 21.0308 24.1905ZM13.9458 22.9064L15.0853 27.2256L17.5405 25.4584L14.3256 23.2769C14.1762 23.1758 14.0482 23.0498 13.9458 22.9064ZM5.6429 15.4042L11.956 17.8186C12.4083 17.9915 12.7496 18.3719 12.8732 18.8401L13.6738 21.8752C13.7105 21.5251 13.8691 21.1957 14.1269 20.9476L29.9285 5.73812L5.6429 15.4042Z" fill="#57899F"/>
</svg>
