<svg width="39" height="38" viewBox="0 0 39 38" fill="none" xmlns="http://www.w3.org/2000/svg">
<path d="M1.82849 37.0211C1.67659 37.039 1.52313 37.039 1.37123 37.0211C0.904255 36.9004 0.503874 36.6001 0.257232 36.1856C0.0105901 35.7711 -0.0623467 35.276 0.0542973 34.8079L8.35827 1.39087C8.45841 0.985042 8.69454 0.625758 9.02733 0.372834C9.36013 0.119909 9.76951 -0.0113969 10.1873 0.000776278H30.3071C30.5773 0.00256288 30.8437 0.0641774 31.0872 0.181192C31.3307 0.298206 31.5453 0.467713 31.7155 0.677532C31.8879 0.886362 32.0118 1.13087 32.0782 1.39341C32.1446 1.65595 32.1519 1.92996 32.0996 2.19566L25.2954 35.5396C25.2008 36.0247 24.9174 36.4523 24.5075 36.7285C24.0976 37.0046 23.5948 37.1066 23.1097 37.012C22.6246 36.9174 22.197 36.634 21.9208 36.224C21.6447 35.8141 21.5427 35.3113 21.6373 34.8262L27.8744 3.73208H11.5957L3.60269 35.631C3.50465 36.0276 3.2767 36.3799 2.95515 36.6318C2.6336 36.8838 2.23698 37.0208 1.82849 37.0211Z" fill="#57899F"/>
<path d="M3.49289 30.345C3.00779 30.345 2.54256 30.1523 2.19954 29.8093C1.85652 29.4663 1.66382 29.0011 1.66382 28.516C1.66382 28.0309 1.85652 27.5656 2.19954 27.2226C2.54256 26.8796 3.00779 26.6869 3.49289 26.6869H24.8564C25.3415 26.6869 25.8067 26.8796 26.1497 27.2226C26.4928 27.5656 26.6855 28.0309 26.6855 28.516C26.6855 29.0011 26.4928 29.4663 26.1497 29.8093C25.8067 30.1523 25.3415 30.345 24.8564 30.345H3.49289Z" fill="#57899F"/>
<path d="M36.837 37.0212C36.4241 37.0353 36.0185 36.9092 35.6864 36.6634C35.3542 36.4177 35.1151 36.0667 35.0079 35.6676L29.9963 17.377C29.9328 17.144 29.916 16.9007 29.947 16.6612C29.978 16.4217 30.0561 16.1907 30.1769 15.9815C30.2976 15.7724 30.4585 15.5892 30.6504 15.4425C30.8423 15.2959 31.0614 15.1887 31.2949 15.1272C31.763 15.0045 32.2606 15.0722 32.6789 15.3156C33.0971 15.559 33.4019 15.9582 33.5264 16.4259L38.538 34.7165C38.6614 35.1821 38.5962 35.6776 38.3565 36.0954C38.1168 36.5132 37.7219 36.8196 37.2577 36.948C37.1215 36.9918 36.9799 37.0165 36.837 37.0212Z" fill="#57899F"/>
<path d="M16.8268 37.0211C16.4562 37.0186 16.0951 36.9036 15.7913 36.6913C15.4876 36.479 15.2555 36.1794 15.1258 35.8322L12.6199 29.1561C12.5194 28.9283 12.4665 28.6824 12.4644 28.4334C12.4623 28.1843 12.5111 27.9375 12.6077 27.708C12.7044 27.4786 12.8469 27.2712 13.0265 27.0987C13.2061 26.9262 13.419 26.7922 13.6522 26.7049C13.8854 26.6177 14.134 26.5789 14.3827 26.591C14.6314 26.6032 14.875 26.666 15.0986 26.7756C15.3222 26.8853 15.521 27.0394 15.683 27.2285C15.8449 27.4177 15.9665 27.638 16.0403 27.8758L18.5461 34.5519C18.7137 35.0009 18.6984 35.4978 18.5034 35.9356C18.3085 36.3735 17.9494 36.7173 17.5036 36.8931C17.2906 36.9864 17.0592 37.0302 16.8268 37.0211Z" fill="#57899F"/>
<path d="M22.6615 13.664H12.6565C12.1714 13.664 11.7061 13.4713 11.3631 13.1283C11.0201 12.7853 10.8274 12.32 10.8274 11.8349C10.8274 11.3498 11.0201 10.8846 11.3631 10.5416C11.7061 10.1986 12.1714 10.0059 12.6565 10.0059H22.6615C23.1466 10.0059 23.6118 10.1986 23.9548 10.5416C24.2978 10.8846 24.4905 11.3498 24.4905 11.8349C24.4905 12.32 24.2978 12.7853 23.9548 13.1283C23.6118 13.4713 23.1466 13.664 22.6615 13.664Z" fill="#57899F"/>
<path d="M20.9972 20.34H10.9922C10.5071 20.34 10.0418 20.1473 9.69881 19.8043C9.35579 19.4613 9.16309 18.9961 9.16309 18.511C9.16309 18.0259 9.35579 17.5606 9.69881 17.2176C10.0418 16.8746 10.5071 16.6819 10.9922 16.6819H20.9972C21.4823 16.6819 21.9475 16.8746 22.2905 17.2176C22.6335 17.5606 22.8262 18.0259 22.8262 18.511C22.8262 18.9961 22.6335 19.4613 22.2905 19.8043C21.9475 20.1473 21.4823 20.34 20.9972 20.34Z" fill="#57899F"/>
</svg>
